# xmcd
#
# Track frame offsets: 
#        150
#        20627
#        48939
#        68309
#        101740
#        128068
#        147616
#
# Disc length: 2497 seconds
#
# Revision: 0
# Processed by: cddbd v1.5.2PL0 Copyright (c) Steve Scherf et al.
# Submitted via: ExactAudioCopy v1.1
#
DISCID=5d09bf07
DTITLE=Angel Forrest - Electric Love [disk 1]
DYEAR=2018
DGENRE=Blues Rock
TTITLE0=All The Way
TTITLE1=Spoil Me Up
TTITLE2=Piece Of My Heart
TTITLE3=Walkin' Blues
TTITLE4=House Of The Rising Sun
TTITLE5=How You Do
TTITLE6=Move On
EXTD=
EXTT0=
EXTT1=
EXTT2=
EXTT3=
EXTT4=
EXTT5=
EXTT6=
PLAYORDER=
